<?xml version="1.0" standalone="no"?><svg xmlns="http://www.w3.org/2000/svg" viewBox="0 0 1440 320"><path fill="#0B4F6C" fill-opacity="1" d="M0,32L40,37.3C80,43,160,53,240,58.7C320,64,400,64,480,85.3C560,107,640,149,720,138.7C800,128,880,64,960,74.7C1040,85,1120,171,1200,197.3C1280,224,1360,192,1400,176L1440,160L1440,320L1400,320C1360,320,1280,320,1200,320C1120,320,1040,320,960,320C880,320,800,320,720,320C640,320,560,320,480,320C400,320,320,320,240,320C160,320,80,320,40,320L0,320Z"></path></svg>